  <svg
    id="logo"
    clip-rule="evenodd"
    fill-rule="evenodd"
    stroke-linejoin="round"
    stroke-miterlimit="1.4142"
    version="1.1"
    viewBox="0 0 504 140"
    xml:space="preserve"
    xmlns="http://www.w3.org/2000/svg"
    xmlns:cc="http://creativecommons.org/ns#"
    xmlns:dc="http://purl.org/dc/elements/1.1/"
    xmlns:rdf="http://www.w3.org/1999/02/22-rdf-syntax-ns#"
    xmlns:xlink="http://www.w3.org/1999/xlink"
  >
    <metadata>
      <rdf:RDF
        ><cc:Work rdf:about=""
          ><dc:format>image/svg+xml</dc:format
          ><dc:type
            rdf:resource="http://purl.org/dc/dcmitype/StillImage" /><dc:title /></cc:Work
      ></rdf:RDF>
    </metadata>
    <defs>
      <linearGradient
        id="linearGradient1471"
        x1="-.018836"
        x2="139.16"
        y1="69.569"
        y2="69.569"
        gradientUnits="userSpaceOnUse"
      >
        <stop offset="0" />
        <stop stop-opacity="0" offset="1" />
      </linearGradient>
      <linearGradient
        id="linearGradient1479"
        x1="154.97"
        x2="429.89"
        y1="20.855"
        y2="55.621"
        gradientUnits="userSpaceOnUse"
      >
        <stop offset="0" />
        <stop stop-opacity="0" offset="1" />
      </linearGradient>
    </defs>

    <path
      d="m71.151 108.85c2.147-8.4266 4.613-13.672 10.289-19.467-5.512-0.69951-14.394-3.7174-23.086-10.994-15.863 0.37141-50.752-11.958-49.334-20.365 0.41846-2.4882 1.7882-3.4088 3.509-3.4774 4.0762-0.84899 15.845 4.1044 15.845 4.1044s-1.8226 0.82388-4.8881 4.7824c9.3996-7.0869 25.602-2.5816 30.88-1.7321 2.5067 3.3477 7.436 1.9407 7.436 1.9407 7.5545-2.3552 11.804-7.5719 13.914-11.929-2.0285 3.3081-6.0529 5.5492-9.9393 7.0236l-0.02173 0.0075c-0.43908 0.16528-0.87453 0.3166-1.3094 0.46664-3.2869 1.0183-8.116 1.5954-8.8467-0.5073l-0.02637 0.01552c-0.65877-2.1943-2.0483-4.7033-3.622-6.8284l-3.0923-4.8349s1.1056 2.7674 0.32201 4.741c-3.341-0.73401-8.0646-3.305-11.462-6.8216-4.9485-5.1162 0.07147-8.8244 4.8068-6.9996 1.1578 0.44989 2.1794 0.95558 3.0496 1.4673 0.3221-0.63596 0.86674-1.1555 1.6616-1.5185 0.0044-0.0026 0.0072-0.0067 0.01064-9e-3 1.7198-1.074 4.225-1.682 8.9973-0.37823 0.99604 0.2372 2.0496 0.57298 3.1591 1.027 0.03749 0.01344 0.07083 0.02409 0.1077 0.0388 0.05083 0.01833 0.0992 0.04175 0.14974 0.0623 0.02829 0.01134 0.05531 0.02207 0.0836 0.03341 0.28102 0.11408 0.56063 0.24241 0.83601 0.38598 4.3192 2.0287 9.4026 5.8361 15.136 12.629 16.611 4.4704 20.293 6.9427 20.293 6.9427 1.3868 0.65191 3.2878 1.9731 3.8417 2.5101 6.6359-7.6553 17.992-12.682 21.577-12.526-0.20515-0.04199-0.41239-0.07478-0.6194-0.0886 1.2405 0.08767 1.6942 0.27831 2.4299 0.56151 1.9949 0.7688 4.3386 4.9057 1.6224 7.6271-1.4481 1.4507-3.6486 2.3932-5.3499 2.9537-1.0335-3.5621-6.1307-5.3469-6.1307-5.3469s2.3745 2.4218 3.6493 6.0144c0 0-0.50091 1.2486-1.6518 2.9909-3.5969-0.56252-10.951-0.98408-17.033 3.285-1.219 0.78143-2.1952 1.6616-2.9591 2.5982-0.03463 0.03744-0.06963 0.07077-0.10487 0.10949-0.0456 0.06984-0.08373 0.13073-0.12559 0.19609-3.6855 4.8462-11.984-3.4969-11.984-3.4969 0.4158-3.2209 11.585 8.1537 13.724 5.7781 1.1524-1.2474 2.1852-2.1261 3.0301-2.7383 5.4262-3.6175 9.6981-2.5538 12.485-2.0635 5.6851 1.3804 10.391 5.8577 11.76 11.953 1.9197 8.5559-3.4579 17.048-12.011 18.966-5.2258 1.1722-10.425-0.38006-14.118-3.7136-2.3374 1.9227-5.956 1.9924-5.956 1.9924-2.2717 3.5864-4.0425 4.3245-5.7528 4.8225-0.5682-3.3565-3.779-5.693-3.779-5.693s3.586 5.6097 1.6508 10.265c-1.6824 3.1741-3.3929 5.4962-4.7332 6.992-1.909 2.138 0.04527 8.3042-4.4517 9.0877-4.4916 0.78058-6.1511-3.864-3.8697-12.842m64.135-62.113c-12.612-36.295-52.258-55.492-88.548-42.882-36.293 12.612-55.495 52.258-42.882 88.553 12.611 36.291 52.26 55.489 88.553 42.877 36.291-12.611 55.489-52.257 42.878-88.548"
      fill="url(#linearGradient1471)"
      fill-rule="nonzero"
    />

    <text
      transform="matrix(1.3269 0 0 2.4837 -56.671 -17.311)"
      fill="url(#linearGradient1479)"
      font-family="sans-serif"
      font-size="40px"
      font-style="italic"
      font-weight="bold"
      style="
        font-variant-caps: normal;
        font-variant-east-asian: normal;
        font-variant-ligatures: normal;
        font-variant-numeric: normal;
        line-height: 1.25;
        shape-inside: url(#rect1421);
        white-space: pre;
      "
      xml:space="preserve"
    >
      <tspan x="161.21875" y="49.694385">
        <tspan
          fill="url(#linearGradient1479)"
          font-family="sans-serif"
          font-size="40px"
          font-style="italic"
          font-weight="bold"
          style="
            font-variant-caps: normal;
            font-variant-east-asian: normal;
            font-variant-ligatures: normal;
            font-variant-numeric: normal;
          "
        >
          GIN TONIC
        </tspan>
      </tspan>
    </text>
  </svg>
