<?xml version="1.0" encoding="UTF-8" standalone="no"?>
<svg
   id="logo"
   clip-rule="evenodd"
   fill-rule="evenodd"
   stroke-linejoin="round"
   stroke-miterlimit="1.4142"
   version="1.1"
   viewBox="0 0 432.50284 67.67124"
   xml:space="preserve"
   width="114.43304mm"
   height="17.904682mm"
   xmlns="http://www.w3.org/2000/svg"
   xmlns:svg="http://www.w3.org/2000/svg"
   xmlns:rdf="http://www.w3.org/1999/02/22-rdf-syntax-ns#"
   xmlns:cc="http://creativecommons.org/ns#"
   xmlns:dc="http://purl.org/dc/elements/1.1/">
    <metadata
   id="metadata1081">
      <rdf:RDF><cc:Work
     rdf:about=""><dc:format>image/svg+xml</dc:format><dc:type
       rdf:resource="http://purl.org/dc/dcmitype/StillImage" /></cc:Work></rdf:RDF>
    </metadata>
    <defs
   id="defs1093"><rect
   x="161.42151"
   y="55.088295"
   width="389.46143"
   height="111.45771"
   id="rect3749" />
      <linearGradient
   id="linearGradient1471"
   x1="-0.018835999"
   x2="139.16"
   y1="69.569"
   y2="69.569"
   gradientUnits="userSpaceOnUse">
        <stop
   offset="0"
   id="stop1083" />
        <stop
   stop-opacity="0"
   offset="1"
   id="stop1085" />
      </linearGradient>
      <linearGradient
   id="linearGradient1479"
   x1="154.97"
   x2="429.89001"
   y1="20.855"
   y2="55.620998"
   gradientUnits="userSpaceOnUse">
        <stop
   offset="0"
   id="stop1088" />
        <stop
   stop-opacity="0"
   offset="1"
   id="stop1090" />
      </linearGradient>
    </defs>

    <g
   id="g17"
   style="fill:#2854a4;fill-opacity:1"
   transform="translate(-12.362,-10.164759)"><path
     d="m 34.988,61.24 c 0.002,0.071 0.032,0.139 0.082,0.189 0.005,0.005 0.01,0.01 0.015,0.014 2.81,2.418 6.511,3.413 10.156,2.73 0.078,-0.014 0.145,-0.06 0.188,-0.127 0.042,-0.067 0.054,-0.148 0.033,-0.224 l -2.659,-9.926 c -0.027,-0.098 -0.102,-0.173 -0.2,-0.2 -0.097,-0.026 -0.201,0.002 -0.273,0.073 l -7.26,7.26 c -0.055,0.055 -0.085,0.132 -0.082,0.211 z"
     id="path9"
     style="fill:#2854a4;fill-opacity:1" /><path
     d="m 31.609,48.517 c 0.034,0.034 0.079,0.06 0.127,0.073 l 9.918,2.658 c 0.097,0.025 0.201,-0.003 0.273,-0.074 0.072,-0.071 0.099,-0.176 0.073,-0.273 l -2.657,-9.918 c -0.019,-0.076 -0.073,-0.141 -0.141,-0.176 -0.07,-0.038 -0.152,-0.043 -0.226,-0.018 -1.745,0.611 -3.283,1.574 -4.572,2.863 -1.289,1.289 -2.251,2.826 -2.862,4.571 -0.026,0.074 -0.02,0.156 0.017,0.226 0.013,0.025 0.03,0.048 0.05,0.068 z"
     id="path11"
     style="fill:#2854a4;fill-opacity:1" /><path
     d="m 33.802,60.162 c 0.05,0.05 0.118,0.08 0.189,0.082 0.078,0.003 0.155,-0.027 0.21,-0.082 l 7.26,-7.26 c 0.073,-0.071 0.101,-0.175 0.075,-0.272 -0.026,-0.098 -0.102,-0.173 -0.2,-0.2 l -9.927,-2.66 c -0.076,-0.021 -0.157,-0.009 -0.224,0.033 -0.066,0.043 -0.113,0.11 -0.127,0.188 -0.683,3.645 0.312,7.347 2.73,10.156 0.004,0.005 0.01,0.01 0.014,0.015 z"
     id="path13"
     style="fill:#2854a4;fill-opacity:1" /><path
     d="m 60.652,15.261 c 10e-4,-0.01 0.115,-1.083 0.801,-1.668 0.406,-0.347 0.971,-0.482 1.73,-0.413 l 9.627,0.87 0.27,-2.988 -9.627,-0.87 c -1.958,-0.173 -3.232,0.511 -3.947,1.119 -1.458,1.244 -1.77,3.048 -1.832,3.601 l -1.038,4.375 c -4.921,-1.235 -11.721,-1.868 -18.479,-1.868 -12.818,0 -25.795,2.275 -25.795,6.624 0,0 0,0.001 0,0.001 v 0 c 0,0.088 0.006,0.176 0.016,0.263 l 2.984,44.699 c 0,3.975 10.519,8.83 22.795,8.83 12.277,0 22.795,-4.855 22.793,-8.773 l 2.986,-44.756 c 0.011,-0.087 0.016,-0.175 0.016,-0.263 v 0 c 0,0 0,-0.001 0,-0.001 0,-1.566 -1.689,-2.862 -4.441,-3.88 l 1.105,-4.658 z M 26.284,57.013 c -1.767,0.171 -3.562,-0.627 -4.569,-2.234 -1.066,-1.701 -0.943,-3.809 0.145,-5.354 1.865,-0.305 3.816,0.504 4.881,2.206 1.006,1.607 0.941,3.571 0.016,5.086 -1.176,-1.827 -2.358,-3.535 -3.503,-5.066 0.878,1.697 1.9,3.506 3.03,5.362 z m 27.514,-25.762 -0.874,3.686 c -1.808,0.321 -3.888,0.586 -6.181,0.776 -0.041,-1.278 -0.708,-2.51 -1.893,-3.199 l -3.271,-1.903 c 0.078,-0.002 0.156,-0.003 0.234,-0.006 0.018,-0.001 0.035,-0.001 0.053,-0.002 0.586,-0.02 1.17,-0.046 1.75,-0.076 0.017,-0.001 0.035,-0.002 0.052,-0.003 2.08,-0.108 4.102,-0.282 6.027,-0.511 z M 38.1,36.054 c -0.788,0 -1.561,-0.011 -2.327,-0.026 l 1.619,-5.366 c 0.099,0.001 0.199,0.002 0.298,0.003 l 6.154,3.58 c 0.424,0.246 0.726,0.643 0.851,1.117 0.043,0.163 0.055,0.328 0.053,0.493 -2.098,0.127 -4.328,0.199 -6.648,0.199 z m 0.64,-7.094 -0.71,-0.413 0.038,-0.126 c 0.232,-0.768 0.954,-1.305 1.755,-1.305 0.178,0 0.357,0.027 0.531,0.079 l 5.033,1.518 c -2.063,0.147 -4.284,0.234 -6.647,0.247 z m -3.425,1.665 -1.611,5.34 C 30,35.82 26.635,35.496 23.871,35.04 l 2.911,-5.005 c 2.695,0.315 5.59,0.513 8.533,0.59 z m -7.596,-2.199 0.626,-1.076 c 0.328,-0.563 0.937,-0.913 1.589,-0.913 0.322,0 0.639,0.086 0.92,0.25 l 3.81,2.217 C 32.156,28.821 29.83,28.657 27.719,28.426 Z m 1.927,21.435 c 0.042,-0.235 0.094,-0.465 0.147,-0.696 0.021,-0.091 0.038,-0.183 0.061,-0.272 l -0.003,-0.002 c 0.084,-0.334 0.18,-0.663 0.29,-0.987 L 21.452,42.849 C 21.028,42.602 20.725,42.206 20.6,41.732 20.475,41.257 20.542,40.763 20.788,40.34 l 1.766,-3.035 c 2.809,0.546 6.391,0.945 10.405,1.131 l -1.145,3.796 c -0.229,0.757 -0.213,1.547 0.027,2.284 0.6,-0.864 1.302,-1.649 2.082,-2.351 l 1.102,-3.653 c 1.006,0.027 2.032,0.042 3.077,0.042 1.876,0 3.696,-0.046 5.434,-0.131 l -0.153,0.264 c 0.743,0.021 1.471,0.095 2.18,0.231 l 0.374,-0.642 c 2.345,-0.173 4.495,-0.422 6.37,-0.73 l -1.336,5.633 c -0.014,-0.052 -0.024,-0.108 -0.068,-0.143 -2.81,-2.418 -6.511,-3.413 -10.157,-2.729 -0.078,0.014 -0.145,0.061 -0.187,0.126 -0.042,0.067 -0.054,0.148 -0.034,0.224 l 2.66,9.927 c 0.013,0.049 0.039,0.093 0.073,0.127 0.034,0.034 0.078,0.06 0.127,0.073 0.097,0.026 0.201,-0.002 0.273,-0.073 l 7.244,-7.244 -0.539,2.272 -5.838,5.838 c -0.072,0.072 -0.099,0.176 -0.073,0.274 0.013,0.049 0.039,0.092 0.073,0.127 0.034,0.034 0.078,0.06 0.127,0.073 l 3.962,1.062 -0.283,1.192 -3.997,-1.071 c -0.097,-0.026 -0.202,0.002 -0.273,0.073 -0.072,0.072 -0.099,0.176 -0.073,0.273 l 2.395,8.937 -0.452,1.905 c -0.086,0.362 -0.027,0.722 0.131,1.029 -0.987,0.228 -2.01,0.361 -3.067,0.361 -7.496,0 -13.572,-6.076 -13.572,-13.572 -0.002,-0.815 0.081,-1.607 0.223,-2.379 z m 19.818,12.656 c 0.765,-0.479 1.473,-1.042 2.118,-1.687 1.288,-1.29 2.251,-2.828 2.862,-4.573 0.026,-0.074 0.02,-0.156 -0.018,-0.226 -0.036,-0.066 -0.1,-0.12 -0.176,-0.141 l -3.022,-0.81 0.283,-1.192 3.066,0.822 c 0.076,0.021 0.157,0.009 0.224,-0.034 0.066,-0.043 0.113,-0.109 0.127,-0.187 0.557,-2.966 -0.016,-5.962 -1.545,-8.492 l 0.449,-1.894 c 0.022,0.029 0.047,0.055 0.068,0.085 0.036,0.049 0.067,0.101 0.103,0.15 0.195,0.271 0.382,0.549 0.557,0.835 1.264,2.059 2.005,4.472 2.005,7.066 0,5.328 -3.077,9.925 -7.544,12.147 z M 14.122,24.257 c -0.021,-0.069 -0.057,-0.139 -0.058,-0.206 l -10e-4,-0.013 c 0.015,-2.007 9.397,-4.918 24.094,-4.918 7.676,0 13.883,0.796 18.082,1.841 l -1.546,6.516 c -0.207,0.043 -0.398,0.089 -0.613,0.131 -0.006,0.001 -0.011,0.002 -0.017,0.003 -1.072,0.21 -2.244,0.402 -3.499,0.573 l -9.632,-2.906 c -0.361,-0.109 -0.734,-0.164 -1.109,-0.164 -1.561,0 -2.968,0.98 -3.545,2.412 l -4.419,-2.571 c -0.585,-0.341 -1.251,-0.521 -1.925,-0.521 -1.362,0 -2.633,0.731 -3.317,1.907 L 25.559,28.16 C 24.377,27.996 23.274,27.811 22.257,27.612 22.232,27.607 22.209,27.602 22.184,27.597 21.642,27.49 21.124,27.379 20.631,27.264 20.539,27.242 20.456,27.22 20.365,27.198 19.954,27.099 19.555,26.999 19.181,26.896 19.027,26.853 18.89,26.809 18.743,26.766 18.457,26.682 18.171,26.598 17.909,26.513 17.708,26.447 17.528,26.379 17.342,26.312 17.163,26.248 16.978,26.184 16.814,26.119 16.59,26.031 16.391,25.941 16.193,25.852 16.094,25.807 15.986,25.763 15.894,25.718 15.68,25.614 15.493,25.51 15.316,25.406 15.262,25.375 15.201,25.343 15.151,25.312 14.976,25.203 14.831,25.094 14.697,24.986 14.663,24.959 14.622,24.931 14.591,24.904 14.475,24.802 14.39,24.702 14.312,24.602 14.285,24.566 14.249,24.53 14.226,24.495 14.173,24.416 14.149,24.336 14.122,24.257 Z m 45.13,44.749 c 0,2.378 -9.12,7.131 -21.096,7.131 -11.975,0 -21.095,-4.753 -21.097,-7.188 L 14.24,26.694 c 0.005,0.003 0.011,0.006 0.016,0.009 2.123,1.368 5.87,2.39 10.376,3.053 l -0.838,1.44 c -3.026,0.513 -5.31,1.184 -6.497,1.946 -0.025,-0.015 -0.056,-0.029 -0.08,-0.043 -0.638,0.395 -0.982,0.815 -0.982,1.25 0,0.189 0.071,0.374 0.196,0.556 l 2.698,28.801 c 0,2.322 8.52,6.057 19.031,6.057 0.028,0 0.056,-0.001 0.084,-0.001 0.028,0 0.056,0.001 0.084,0.001 10.51,0 19.031,-3.734 19.031,-6.057 l 2.75,-29.357 c 0,-0.649 -0.786,-1.262 -2.156,-1.81 -0.14,-0.691 -0.464,-1.327 -0.941,-1.843 l 0.505,-2.13 c 1.882,-0.526 3.437,-1.15 4.549,-1.868 0.002,-0.001 0.004,-0.002 0.006,-0.004 z m 2.999,-44.969 -10e-4,0.016 c -10e-4,0.064 -0.036,0.131 -0.056,0.197 -0.027,0.082 -0.052,0.165 -0.107,0.249 -0.021,0.032 -0.054,0.065 -0.079,0.098 -0.079,0.103 -0.168,0.206 -0.287,0.31 -0.029,0.025 -0.066,0.05 -0.097,0.075 -0.135,0.11 -0.284,0.221 -0.462,0.332 -0.049,0.03 -0.108,0.06 -0.16,0.091 -0.178,0.104 -0.366,0.209 -0.581,0.314 -0.095,0.046 -0.205,0.091 -0.307,0.137 -0.195,0.088 -0.391,0.176 -0.612,0.263 -0.17,0.067 -0.36,0.133 -0.544,0.199 -0.181,0.065 -0.355,0.13 -0.549,0.194 -0.136,0.045 -0.292,0.088 -0.435,0.132 l 1.143,-4.819 c 2.016,0.743 3.128,1.529 3.134,2.212 z"
     id="path15"
     style="fill:#2854a4;fill-opacity:1" /></g>

    
  <text
   xml:space="preserve"
   id="text3747"
   style="font-style:normal;font-weight:normal;font-size:40px;line-height:1.25;font-family:sans-serif;white-space:pre;shape-inside:url(#rect3749);fill:#2854a4;fill-opacity:1;stroke:none"
   transform="matrix(1.6869322,0,0,1.7219368,-215.97103,-97.991266)"><tspan
     x="161.42188"
     y="91.581103"
     id="tspan11460"><tspan
       style="font-weight:bold;font-family:'ITF Devanagari';-inkscape-font-specification:'ITF Devanagari, Bold'"
       id="tspan11454">GIN</tspan><tspan
       style="font-weight:bold;font-family:'ITF Devanagari';-inkscape-font-specification:'ITF Devanagari, Bold'"
       id="tspan11456">-</tspan><tspan
       style="font-weight:bold;font-family:'ITF Devanagari';-inkscape-font-specification:'ITF Devanagari, Bold'"
       id="tspan11458">Tonic</tspan></tspan></text></svg>
