<?xml version="1.0" standalone="no"?>
<!DOCTYPE svg PUBLIC "-//W3C//DTD SVG 20010904//EN"
 "http://www.w3.org/TR/2001/REC-SVG-20010904/DTD/svg10.dtd">
<svg version="1.0" xmlns="http://www.w3.org/2000/svg"
 width="1088.000000pt" height="1088.000000pt" viewBox="0 0 1088.000000 1088.000000"
 preserveAspectRatio="xMidYMid meet">
<metadata>
Created by potrace 1.14, written by Peter Selinger 2001-2017
</metadata>
<g transform="translate(0.000000,1088.000000) scale(0.100000,-0.100000)"
fill="#000000" stroke="none">
<path d="M8550 10873 c-62 -10 -193 -46 -218 -59 -15 -7 -33 -14 -39 -14 -7 0
-13 -3 -13 -8 0 -4 -15 -13 -32 -21 -18 -8 -35 -17 -38 -20 -3 -3 -23 -19 -45
-36 -94 -69 -169 -164 -224 -280 -18 -38 -36 -78 -41 -87 -10 -17 -45 -151
-54 -203 -8 -49 -16 -88 -26 -125 -5 -19 -11 -46 -13 -60 -3 -14 -10 -45 -17
-70 -13 -49 -22 -87 -24 -110 -1 -9 -5 -20 -8 -25 -3 -6 -9 -28 -13 -50 -10
-48 -7 -34 -39 -169 -15 -60 -29 -113 -31 -116 -3 -4 -37 1 -77 12 -40 11 -82
21 -93 23 -11 2 -38 7 -60 10 -22 4 -51 11 -65 16 -14 5 -43 11 -66 13 -22 2
-60 9 -83 16 -24 6 -45 9 -48 6 -3 -3 -13 -1 -23 4 -9 5 -40 11 -68 14 -28 2
-55 7 -59 9 -4 3 -30 8 -58 11 -27 3 -63 8 -80 11 -16 4 -43 8 -60 10 -16 2
-50 7 -75 10 -25 3 -61 8 -80 10 -19 2 -55 6 -80 10 -40 5 -82 10 -175 19 -16
2 -59 7 -95 11 -71 7 -98 10 -210 19 -41 4 -102 9 -135 12 -33 3 -87 7 -120 9
-33 2 -105 6 -160 9 -617 38 -1403 38 -1995 1 -251 -16 -377 -25 -415 -30 -16
-2 -64 -7 -106 -10 -42 -3 -87 -7 -100 -10 -13 -2 -53 -6 -89 -9 -36 -4 -100
-11 -144 -17 -43 -6 -84 -8 -92 -5 -7 3 -15 2 -18 -2 -3 -4 -20 -9 -38 -10
-43 -3 -75 -9 -88 -17 -6 -3 -10 -1 -10 6 0 8 -4 8 -13 1 -6 -5 -41 -13 -76
-16 -36 -4 -67 -8 -70 -10 -3 -2 -28 -6 -56 -10 -47 -6 -61 -8 -125 -21 -24
-5 -57 -11 -110 -19 -14 -2 -36 -7 -50 -10 -14 -3 -36 -8 -50 -10 -14 -3 -36
-8 -50 -11 -14 -3 -38 -8 -55 -10 -16 -3 -73 -16 -125 -30 -52 -13 -106 -26
-120 -29 -41 -8 -312 -86 -324 -94 -6 -3 -17 -7 -24 -8 -50 -8 -429 -174 -442
-194 -3 -4 -15 -10 -27 -14 -13 -4 -23 -12 -23 -17 0 -5 -5 -9 -11 -9 -5 0
-30 -15 -55 -34 -111 -85 -169 -152 -212 -243 -24 -52 -27 -68 -26 -163 1
-102 8 -225 19 -360 3 -36 8 -103 10 -150 3 -47 8 -114 10 -150 7 -92 13 -190
20 -300 3 -52 8 -124 11 -160 3 -36 6 -98 7 -137 1 -40 4 -73 7 -73 3 0 5 -26
6 -58 1 -31 4 -106 8 -167 5 -60 9 -135 11 -165 2 -30 6 -93 10 -140 3 -47 8
-112 10 -145 8 -134 17 -273 21 -325 4 -70 13 -193 19 -295 3 -44 8 -107 10
-140 3 -33 7 -94 10 -135 2 -41 7 -106 10 -145 3 -38 7 -106 10 -150 5 -89 13
-205 20 -310 6 -86 13 -196 19 -293 2 -40 6 -76 9 -79 3 -3 2 -15 -3 -28 -5
-13 -6 -26 -2 -29 6 -7 7 -12 16 -161 8 -115 13 -198 21 -305 5 -80 15 -229
20 -320 2 -30 4 -55 5 -55 1 0 3 -31 5 -70 4 -77 12 -195 20 -320 12 -164 14
-202 19 -285 6 -105 15 -234 22 -320 3 -36 7 -96 9 -135 2 -38 6 -101 9 -140
3 -38 8 -110 11 -160 2 -49 7 -117 10 -150 3 -33 8 -100 11 -150 9 -152 16
-260 29 -440 3 -38 7 -108 10 -155 10 -185 17 -224 63 -315 45 -90 158 -222
256 -300 21 -16 43 -35 50 -41 27 -25 175 -124 185 -124 6 0 11 -4 11 -10 0
-5 6 -10 13 -10 7 0 23 -9 35 -20 12 -11 28 -20 36 -20 8 0 16 -4 18 -9 6 -17
369 -187 513 -241 77 -29 155 -59 173 -67 18 -8 40 -16 50 -18 9 -1 49 -13 87
-26 39 -13 72 -24 75 -24 3 -1 32 -9 65 -19 33 -10 67 -20 75 -22 8 -2 56 -14
105 -28 50 -14 101 -27 115 -30 14 -3 54 -12 90 -20 159 -37 202 -46 240 -51
14 -2 36 -6 50 -9 14 -3 39 -8 55 -11 17 -3 44 -7 60 -10 17 -3 45 -7 63 -10
17 -3 49 -8 70 -11 20 -3 48 -7 62 -9 14 -2 45 -6 70 -9 25 -4 65 -9 90 -11
25 -3 63 -8 85 -10 80 -10 228 -23 370 -32 231 -15 867 -8 1050 11 17 2 68 7
115 11 47 4 94 9 105 11 10 2 49 6 85 9 36 4 73 9 83 12 10 2 35 6 55 8 20 2
57 6 82 10 25 4 54 9 65 11 11 1 20 3 20 4 0 1 16 3 36 5 20 1 45 5 55 9 10 3
37 8 59 12 22 3 72 12 110 21 39 8 84 17 100 19 17 3 48 10 70 16 22 5 47 11
55 13 8 2 33 8 55 14 22 5 69 17 105 26 36 9 72 18 80 22 8 3 20 7 25 8 6 2
37 11 70 21 33 10 65 19 70 20 21 4 181 55 200 64 11 5 40 16 65 24 42 13 121
43 180 69 14 6 27 11 30 12 3 1 22 9 44 18 21 9 40 17 43 17 11 0 298 144 301
152 2 4 9 8 16 8 6 0 28 11 49 25 20 14 37 24 37 21 0 -3 29 15 65 39 36 25
69 45 74 45 5 0 11 3 13 8 2 4 35 31 73 61 39 29 79 63 91 75 12 11 32 30 45
42 76 65 169 196 202 284 22 61 28 112 43 360 2 36 6 103 9 150 3 47 8 114 10
150 2 36 7 103 10 150 3 47 7 123 10 170 3 47 8 112 10 145 3 33 7 94 10 135
2 41 7 107 9 145 3 39 8 111 11 160 4 50 8 117 11 150 2 33 6 98 9 145 2 47 7
119 10 160 3 41 7 109 10 150 3 41 8 102 10 135 2 33 6 98 9 145 4 47 9 119
11 160 3 41 8 109 11 150 3 41 7 113 9 160 2 47 5 85 6 85 2 0 5 42 13 190 4
66 9 143 11 170 3 28 7 88 9 135 3 47 8 119 11 160 3 41 8 107 10 145 2 39 7
117 11 175 4 58 8 131 8 162 1 32 3 58 6 58 3 0 5 24 6 53 1 50 10 206 19 312
3 28 7 88 10 135 8 143 22 353 30 460 3 36 7 101 10 145 3 44 7 107 9 140 9
115 24 335 31 470 2 50 5 90 6 90 2 0 12 174 13 227 1 32 3 58 6 58 3 0 6 26
6 58 1 31 4 98 8 147 4 50 8 117 10 150 2 33 7 110 11 170 4 61 8 128 9 151 2
22 6 46 10 52 4 7 2 12 -4 12 -6 0 -9 4 -5 9 15 26 30 441 15 441 -6 0 -10 5
-10 11 0 22 -34 85 -69 129 -39 49 -122 130 -133 130 -4 0 -13 6 -20 13 -27
27 -106 76 -112 70 -3 -4 -6 -2 -6 4 0 5 -55 36 -122 67 -127 60 -140 65 -196
86 -29 11 -33 16 -27 39 11 42 16 65 21 86 2 11 10 47 19 80 8 33 17 69 19 80
3 11 8 31 11 45 3 14 10 43 15 65 5 22 18 81 30 130 12 50 23 97 25 105 1 8 8
34 15 58 6 24 13 55 15 70 19 142 68 252 138 311 17 14 33 26 36 27 3 0 24 9
46 19 43 19 158 24 300 11 39 -3 93 -8 120 -10 28 -3 77 -7 110 -11 139 -13
182 -17 210 -19 17 -1 35 -5 42 -9 6 -4 14 -3 18 3 4 6 10 8 15 5 10 -6 72
-14 155 -20 33 -3 78 -7 100 -9 22 -2 76 -7 120 -11 44 -3 96 -8 115 -10 19
-2 71 -7 115 -10 44 -3 91 -8 105 -10 14 -2 63 -7 110 -10 47 -4 89 -8 95 -8
5 -1 10 7 11 18 1 11 5 43 8 70 3 28 8 82 11 120 3 39 8 90 10 115 13 127 14
149 7 153 -7 5 -98 14 -212 23 -30 2 -73 6 -95 8 -22 3 -71 7 -110 10 -38 4
-88 8 -110 11 -22 2 -74 7 -115 10 -41 3 -91 7 -110 9 -19 2 -71 7 -115 11
-44 3 -96 8 -115 10 -19 2 -66 6 -105 10 -87 7 -163 14 -340 31 -67 7 -308 12
-335 7z m-3125 -1447 c28 -2 111 -7 185 -11 189 -10 267 -15 435 -30 132 -11
212 -18 247 -19 21 0 38 -3 38 -6 0 -5 70 -11 147 -14 18 0 33 -3 33 -6 0 -3
21 -7 48 -8 57 -5 97 -9 97 -12 0 -1 16 -3 35 -5 19 -2 51 -6 70 -8 19 -3 58
-8 85 -12 28 -3 57 -8 65 -10 8 -3 33 -7 55 -10 22 -3 63 -10 90 -15 60 -11
99 -18 144 -26 41 -7 43 -7 166 -34 55 -12 111 -24 125 -27 14 -3 30 -6 35 -7
6 -2 27 -6 47 -10 35 -8 37 -10 33 -40 -2 -17 -4 -31 -5 -31 -1 0 -3 -7 -5
-15 -2 -8 -6 -25 -9 -37 -12 -48 -17 -69 -21 -93 -2 -14 -11 -50 -19 -80 -8
-30 -17 -66 -19 -80 -3 -14 -12 -52 -20 -85 -9 -33 -19 -75 -22 -94 -3 -19 -8
-38 -11 -43 -3 -5 -8 -21 -10 -36 -4 -25 -45 -200 -58 -247 -1 -5 -9 -37 -16
-70 -16 -68 -17 -72 -20 -82 -1 -5 -2 -11 -1 -15 1 -7 -10 -11 -64 -23 -50
-12 -176 -36 -210 -41 -11 -1 -20 -3 -20 -4 0 -1 -12 -3 -26 -5 -36 -5 -93
-14 -159 -25 -30 -5 -75 -11 -100 -14 -25 -4 -56 -8 -69 -11 -13 -2 -39 2 -57
10 -19 8 -37 14 -39 14 -3 0 -30 7 -60 16 -30 8 -58 16 -62 17 -5 0 -31 9 -60
19 -28 9 -54 15 -57 12 -3 -4 -6 0 -6 7 0 7 -3 11 -6 7 -3 -3 -30 3 -60 13
-30 11 -54 17 -54 15 0 -2 -16 3 -35 11 -19 8 -35 11 -35 8 0 -4 -6 -2 -12 3
-7 6 -35 16 -63 23 -27 7 -54 16 -60 19 -5 3 -19 7 -30 8 -11 2 -31 7 -45 12
-14 6 -72 24 -130 41 -154 46 -173 52 -190 58 -8 3 -19 6 -25 7 -5 2 -80 24
-165 50 -85 26 -182 55 -215 64 -33 10 -67 20 -75 23 -73 28 -249 42 -320 25
-195 -46 -365 -178 -435 -338 -13 -28 -21 -36 -36 -32 -10 3 -19 9 -19 14 0 5
-5 9 -11 9 -6 0 -37 15 -68 34 -31 19 -72 43 -91 54 -54 30 -162 93 -187 108
-13 8 -25 13 -27 12 -2 -2 -12 4 -22 13 -42 36 -327 195 -377 210 -122 37
-250 42 -354 14 -32 -9 -63 -17 -70 -19 -7 -1 -15 -5 -19 -8 -3 -4 -30 -19
-61 -33 -87 -43 -181 -143 -261 -277 -38 -64 -67 -119 -64 -122 3 -4 0 -6 -6
-6 -6 0 -23 -25 -39 -56 l-28 -56 -50 6 c-77 10 -101 13 -175 26 -38 6 -80 13
-92 15 -13 2 -34 6 -48 9 -14 3 -38 8 -55 11 -41 6 -85 14 -115 21 -14 3 -38
8 -55 11 -16 3 -56 11 -87 18 -32 7 -58 11 -58 8 0 -3 -7 0 -15 7 -8 7 -15 10
-15 7 0 -3 -26 2 -57 10 -32 8 -65 16 -73 18 -94 19 -409 117 -510 158 -14 6
-27 11 -30 12 -8 2 -103 46 -140 64 -92 46 -145 81 -201 132 -30 28 -74 89
-63 89 3 0 2 6 -3 13 -14 17 -6 65 17 102 10 17 43 50 72 73 29 23 58 45 63
50 6 4 30 18 55 30 25 13 52 27 60 32 8 5 38 19 65 31 28 12 65 28 83 36 43
19 351 121 382 127 14 2 25 5 25 7 0 1 9 3 20 5 36 6 50 9 63 17 6 5 17 5 22
2 6 -3 10 -2 10 3 0 6 6 9 13 9 6 -1 56 9 110 22 54 13 106 24 115 26 9 2 19
4 22 5 3 1 10 3 15 4 23 4 102 19 120 23 43 9 182 35 210 38 17 3 39 6 50 9
12 2 48 8 80 12 62 8 73 10 78 13 1 1 18 4 37 6 73 8 134 16 154 20 12 2 48 7
81 11 33 3 78 8 100 10 104 13 123 15 170 19 28 2 77 7 110 10 33 3 85 8 115
10 30 3 82 7 115 10 58 5 176 13 300 20 33 2 139 6 235 10 96 4 176 8 178 10
5 4 1178 -4 1237 -9z m2728 -452 c34 -14 67 -27 72 -28 19 -4 140 -69 193
-102 80 -51 148 -125 156 -168 11 -59 -23 -117 -108 -185 -64 -50 -247 -151
-275 -151 -6 0 -11 -5 -11 -11 0 -5 -4 -8 -8 -5 -5 3 -20 -1 -35 -9 -14 -7
-28 -11 -31 -7 -3 3 -6 1 -6 -5 0 -5 -6 -10 -12 -10 -7 -1 -52 -14 -100 -31
-48 -16 -89 -27 -92 -25 -2 2 5 36 15 74 10 39 21 83 23 98 2 14 5 27 6 29 6
7 25 104 22 115 -1 4 2 7 6 7 5 0 9 6 9 13 0 6 4 28 8 47 4 19 8 41 8 48 0 6
4 12 9 12 5 0 7 4 4 8 -3 5 1 32 9 60 7 29 11 52 8 52 -3 0 1 7 8 17 8 9 12
17 10 17 -8 2 32 166 41 166 4 0 36 -12 71 -26z m-4698 -720 c27 -6 96 -39
135 -64 30 -19 221 -130 224 -130 2 0 44 -25 94 -55 50 -30 96 -55 102 -55 5
0 10 -4 10 -9 0 -5 8 -11 18 -15 18 -6 80 -41 90 -50 7 -8 -273 2 -518 18
-110 7 -298 22 -375 30 -22 2 -74 7 -115 11 -86 8 -95 11 -79 31 13 16 36 56
70 121 47 90 135 156 230 172 29 4 61 7 69 5 8 -2 29 -6 45 -10z m-2524 -72
c35 -21 80 -45 99 -54 118 -54 156 -71 165 -73 6 -2 42 -15 80 -30 98 -37 312
-104 384 -120 9 -2 31 -8 49 -14 17 -5 32 -7 32 -5 0 3 6 2 13 -3 6 -4 17 -8
22 -9 33 -6 68 -14 130 -29 39 -9 81 -19 95 -21 14 -2 54 -11 90 -19 36 -7 85
-16 110 -20 25 -3 52 -8 60 -10 8 -3 31 -7 50 -9 19 -3 45 -7 57 -10 11 -2 43
-8 70 -12 66 -11 67 -11 80 -12 13 -2 5 -42 -8 -42 -5 0 -9 -7 -9 -15 0 -8 -5
-15 -11 -15 -5 0 -7 -4 -4 -10 3 -5 1 -10 -4 -10 -6 0 -11 -6 -11 -14 0 -8 -6
-21 -12 -28 -7 -7 -22 -30 -32 -51 -23 -45 -44 -58 -97 -60 -21 -1 -39 -4 -39
-7 0 -3 -16 -6 -36 -7 -20 -1 -41 -7 -48 -12 -7 -6 -15 -9 -18 -6 -4 5 -75 -9
-203 -40 -38 -9 -74 -18 -80 -19 -82 -19 -299 -88 -314 -100 -8 -6 -17 -10
-20 -10 -11 3 -36 -7 -126 -51 -49 -23 -99 -46 -110 -49 -34 -10 -122 -98
-139 -140 -16 -38 -14 -82 4 -116 16 -29 34 -173 35 -277 0 -24 3 -43 6 -43 3
0 6 -15 6 -32 1 -32 7 -103 18 -223 3 -33 8 -80 10 -105 6 -67 14 -149 20
-205 2 -27 7 -79 9 -115 3 -36 8 -87 11 -115 11 -107 14 -132 20 -205 3 -41 8
-91 10 -110 5 -45 15 -140 21 -210 2 -30 6 -73 8 -95 13 -129 19 -194 21 -225
2 -19 6 -64 9 -100 6 -61 9 -90 21 -215 3 -27 8 -81 11 -120 3 -38 7 -90 9
-115 2 -25 4 -45 5 -45 1 0 3 -20 5 -45 2 -25 7 -74 10 -110 4 -36 9 -85 10
-110 2 -25 4 -45 5 -45 1 0 3 -27 5 -60 3 -33 7 -80 10 -105 3 -25 7 -71 8
-102 1 -32 4 -58 7 -58 3 0 6 -21 7 -48 0 -26 4 -74 7 -107 3 -33 8 -82 10
-110 3 -27 8 -81 11 -120 3 -38 8 -86 10 -105 2 -19 7 -62 10 -95 3 -33 8 -78
10 -101 2 -22 7 -72 10 -110 3 -38 7 -87 10 -109 3 -22 7 -67 10 -100 6 -67
12 -130 21 -220 3 -33 8 -85 9 -115 2 -30 4 -55 5 -55 1 0 4 -20 6 -45 9 -83
21 -130 34 -130 5 0 12 -10 16 -22 11 -35 129 -144 224 -206 74 -49 377 -210
398 -212 26 -3 52 -14 52 -23 0 -6 3 -8 6 -5 3 3 33 -5 67 -19 101 -40 402
-139 455 -149 27 -5 188 -46 202 -52 8 -3 22 -6 30 -7 8 -1 58 -12 110 -23
245 -54 531 -99 745 -117 22 -2 72 -6 110 -10 334 -30 839 -34 1135 -10 30 3
89 7 130 11 41 3 89 7 105 9 162 18 231 27 320 40 22 4 52 8 68 11 27 4 66 10
120 20 60 10 276 55 352 73 44 11 83 17 87 15 5 -3 8 -1 8 4 0 5 6 9 13 9 6 0
36 7 65 16 28 9 52 14 52 11 0 -3 6 -2 13 3 6 4 17 8 22 10 46 10 56 12 63 17
5 3 19 7 33 10 39 7 321 107 362 127 20 11 37 17 37 14 0 -4 12 1 28 9 15 8
50 25 77 36 127 54 365 188 373 211 2 5 10 9 17 9 23 0 174 158 195 204 11 25
22 71 25 103 2 32 7 81 10 108 4 46 8 86 20 220 3 28 7 70 9 95 2 25 7 81 11
125 3 44 8 91 10 105 2 14 7 59 10 100 4 41 9 93 11 115 2 22 6 67 9 100 3 33
7 80 10 105 5 42 9 93 20 215 2 28 6 70 9 95 7 68 18 180 21 225 6 62 15 164
20 219 7 64 12 124 20 201 3 33 8 83 10 110 3 28 8 82 11 120 10 126 12 150
14 150 1 0 3 23 5 50 2 28 6 77 10 110 3 33 8 85 10 115 3 30 7 79 10 108 3
28 8 78 11 110 3 31 7 73 9 92 2 19 7 67 10 105 3 39 8 86 10 105 2 19 7 71
11 115 4 44 8 94 10 110 2 17 6 64 9 105 3 41 8 86 10 100 8 50 19 186 19 237
1 29 3 53 6 53 3 0 6 15 6 33 1 17 4 61 8 97 15 154 19 197 19 233 0 20 3 37
6 37 3 0 6 19 7 43 0 39 9 147 19 227 20 171 -8 225 -160 317 -28 16 -137 70
-156 76 -8 3 -21 24 -29 48 -13 44 -69 169 -80 179 -3 3 -18 22 -33 43 l-29
38 18 77 c10 42 19 82 20 87 4 16 12 47 24 100 16 74 19 82 33 83 34 4 54 9
77 19 14 6 57 20 95 32 77 24 162 55 214 78 18 8 39 16 45 18 29 7 76 30 76
38 0 4 4 6 9 2 5 -3 12 -1 16 5 3 5 15 10 26 10 10 0 19 4 19 9 0 5 10 13 22
16 11 4 43 20 71 37 l49 29 -6 -78 c-3 -43 -9 -116 -12 -163 -3 -47 -7 -112
-9 -145 -3 -33 -7 -95 -9 -137 -3 -43 -7 -115 -11 -160 -10 -142 -14 -200 -20
-298 -4 -52 -8 -122 -11 -155 -2 -33 -6 -94 -9 -135 -6 -109 -16 -246 -20
-315 -5 -57 -10 -144 -20 -287 -2 -35 -7 -101 -10 -148 -4 -47 -8 -119 -10
-160 -2 -41 -5 -75 -5 -75 -1 0 -3 -34 -6 -75 -8 -128 -14 -222 -19 -300 -3
-41 -7 -109 -9 -150 -3 -41 -8 -111 -11 -155 -8 -102 -13 -185 -20 -305 -3
-52 -8 -120 -10 -150 -3 -30 -7 -98 -10 -150 -3 -52 -7 -120 -10 -150 -2 -30
-7 -91 -10 -135 -2 -44 -7 -116 -10 -160 -12 -172 -14 -213 -20 -300 -3 -49
-8 -115 -10 -145 -2 -30 -7 -102 -11 -160 -3 -58 -7 -121 -9 -140 -5 -70 -17
-257 -20 -320 -2 -36 -5 -65 -5 -65 -1 0 -3 -25 -5 -55 -2 -30 -6 -100 -10
-155 -4 -55 -8 -129 -10 -165 -2 -36 -4 -65 -5 -65 -1 0 -3 -38 -6 -85 -8
-138 -9 -148 -16 -155 -4 -4 -3 -17 2 -30 5 -13 6 -25 3 -28 -2 -3 -6 -36 -8
-74 -3 -63 -9 -159 -20 -308 -2 -33 -7 -107 -10 -165 -3 -58 -8 -121 -10 -140
-2 -19 -7 -84 -10 -143 -4 -60 -8 -123 -11 -139 -4 -35 -37 -107 -62 -135 -61
-71 -96 -104 -157 -153 -39 -30 -72 -57 -75 -60 -3 -3 -14 -11 -25 -17 -11 -7
-57 -35 -102 -63 -81 -50 -373 -200 -396 -204 -7 -1 -17 -4 -22 -8 -6 -4 -44
-20 -85 -36 -41 -16 -84 -33 -95 -37 -11 -4 -24 -9 -30 -11 -5 -1 -23 -8 -40
-15 -16 -7 -32 -13 -35 -14 -3 0 -68 -22 -145 -47 -121 -41 -203 -66 -240 -73
-5 -2 -34 -10 -62 -18 -29 -9 -53 -13 -53 -10 0 3 -6 1 -12 -4 -7 -6 -20 -11
-28 -11 -8 0 -24 -3 -35 -6 -32 -9 -140 -35 -166 -40 -50 -10 -75 -16 -119
-26 -25 -5 -61 -12 -80 -15 -19 -3 -84 -14 -145 -25 -60 -11 -130 -22 -155
-25 -84 -10 -125 -15 -170 -21 -91 -12 -117 -14 -305 -29 -181 -14 -243 -16
-520 -18 -159 -2 -304 0 -321 4 -17 3 -39 2 -48 -3 -9 -5 -16 -5 -16 -1 0 5
-33 9 -72 11 -40 1 -95 4 -123 7 -27 3 -77 8 -110 10 -76 6 -136 12 -200 20
-27 4 -63 8 -80 10 -16 1 -30 4 -30 5 0 1 -24 3 -53 5 -28 2 -56 6 -60 9 -5 3
-35 8 -68 11 -32 4 -60 10 -62 15 -2 5 -9 7 -16 4 -11 -4 -225 35 -306 56 -19
5 -46 11 -60 14 -45 9 -71 15 -90 21 -10 3 -27 7 -37 9 -10 2 -45 11 -78 20
-33 9 -71 19 -85 22 -14 3 -52 14 -85 25 -33 10 -108 35 -167 54 -113 37 -329
117 -413 155 -81 35 -327 159 -360 180 -16 11 -41 25 -55 30 -13 6 -27 14 -30
18 -3 4 -31 24 -63 45 -59 38 -69 46 -143 109 -95 80 -166 172 -179 233 -9 40
-12 72 -20 190 -3 55 -8 132 -11 170 -3 39 -6 102 -8 141 -1 38 -5 74 -7 80
-3 5 -5 39 -4 76 0 38 -2 68 -5 68 -3 0 -5 26 -6 58 0 31 -4 109 -8 172 -5 63
-9 138 -11 165 -2 28 -4 50 -5 50 -1 0 -3 36 -5 80 -3 44 -7 107 -9 140 -2 33
-7 112 -11 175 -12 180 -13 205 -15 205 -1 0 -3 32 -5 70 -8 141 -13 232 -19
305 -4 41 -9 111 -11 155 -2 44 -7 114 -10 155 -3 41 -7 107 -10 145 -3 39 -7
108 -11 155 -3 47 -8 119 -10 160 -6 95 -19 284 -29 440 -2 25 -6 86 -9 135
-3 50 -8 124 -11 165 -3 41 -7 104 -9 140 -5 77 -16 244 -21 315 -2 28 -6 93
-9 145 -4 52 -8 122 -11 155 -3 33 -8 105 -11 160 -3 55 -7 123 -9 150 -3 28
-7 84 -9 125 -5 81 -13 200 -22 319 -3 41 -7 108 -10 150 -2 42 -6 103 -9 136
-2 33 -6 101 -9 150 -3 50 -8 122 -11 160 -6 70 -12 167 -20 300 -4 68 -7 108
-20 300 -3 50 -8 115 -9 147 -2 31 -7 61 -10 67 -4 6 -2 11 4 11 6 0 8 5 4 12
-4 7 -9 37 -11 67 -9 159 -9 181 -7 181 1 0 31 -17 65 -38z m4119 -35 c0 2 6
1 13 -4 6 -4 14 -8 17 -8 10 -2 125 -36 140 -42 8 -3 20 -7 25 -8 6 0 17 -4
25 -7 8 -3 40 -13 70 -21 30 -9 85 -25 123 -36 37 -12 95 -30 130 -40 163 -51
243 -74 255 -74 25 -1 0 -12 -31 -13 -18 -1 -79 -4 -137 -8 -259 -15 -488 -23
-751 -26 -125 -2 -127 -1 -183 30 -31 18 -56 37 -56 43 1 24 38 93 66 123 30
32 114 89 114 78 0 -4 6 -2 13 3 6 5 30 11 52 12 22 2 41 4 43 6 2 1 19 -1 38
-5 18 -4 34 -6 34 -3z m-2115 -467 c0 -1 16 -3 35 -5 19 -2 60 -6 90 -9 126
-13 186 -19 202 -18 10 0 20 -3 23 -9 4 -5 13 -5 24 1 10 5 20 7 23 5 4 -4 87
-13 198 -20 36 -2 65 -4 65 -5 0 -2 523 -27 617 -29 l37 -1 -20 -65 c-10 -36
-28 -95 -40 -132 -11 -38 -29 -97 -39 -133 -10 -36 -24 -78 -29 -93 -6 -16
-13 -42 -16 -60 -4 -17 -11 -37 -17 -44 -6 -7 -8 -13 -5 -13 3 0 -2 -21 -10
-47 -8 -27 -26 -84 -40 -128 -13 -44 -26 -84 -27 -90 -13 -55 -13 -55 -94 -50
-42 2 -129 7 -192 10 -63 3 -140 8 -170 10 -30 2 -89 7 -130 10 -41 3 -100 7
-130 10 -30 3 -82 7 -115 10 -33 3 -78 7 -100 9 -22 3 -67 7 -100 10 -33 4
-71 8 -85 11 -14 3 -54 8 -90 11 -91 9 -100 10 -140 18 -19 3 -53 8 -75 11
-22 2 -53 7 -70 11 -16 3 -43 7 -59 8 -16 1 -31 6 -33 12 -4 11 76 157 89 162
5 2 8 12 8 22 0 10 4 20 8 22 4 2 19 23 33 48 40 71 70 122 91 155 10 17 21
38 24 48 4 9 11 17 17 17 6 0 8 3 4 6 -3 3 10 30 29 59 19 30 34 57 34 60 0 4
9 19 19 34 11 15 34 54 52 86 41 76 47 81 78 79 14 -1 26 -3 26 -4z m3685 -8
c25 -7 73 -22 108 -33 34 -12 68 -22 75 -23 7 -2 50 -15 97 -29 47 -15 90 -27
95 -28 6 -1 34 -10 63 -20 28 -10 52 -15 52 -12 0 3 6 0 13 -6 8 -6 31 -14 53
-19 44 -9 45 -19 19 -122 -4 -14 -8 -34 -10 -45 -2 -11 -4 -20 -5 -20 -2 0 -6
-16 -13 -55 -3 -14 -6 -25 -7 -25 -1 0 -3 -8 -5 -19 -2 -10 -9 -40 -15 -66 -6
-26 -13 -56 -15 -66 -2 -11 -4 -19 -5 -19 -1 0 -3 -9 -5 -19 -2 -11 -7 -31
-10 -45 -26 -109 -28 -111 -101 -116 -22 -1 -51 -6 -63 -10 -24 -7 -28 -8
-126 -20 -33 -4 -69 -9 -80 -12 -11 -2 -40 -6 -65 -9 -25 -2 -56 -6 -70 -8
-14 -3 -50 -7 -80 -10 -30 -3 -71 -7 -90 -10 -19 -3 -64 -8 -100 -11 -75 -5
-161 -14 -207 -20 -22 -3 -33 -1 -34 8 0 6 -2 19 -4 27 -1 8 -5 29 -8 45 -21
127 -93 267 -177 342 -61 55 -87 74 -112 86 -16 6 -28 15 -28 19 0 5 -5 8 -11
8 -6 0 -56 27 -111 60 -54 33 -101 60 -104 60 -2 0 -23 12 -47 27 -42 28 -70
44 -165 97 -29 16 -50 31 -47 34 3 3 33 6 67 8 196 7 435 20 538 29 36 3 94 8
130 10 36 2 83 6 105 9 22 2 76 7 120 11 44 3 92 8 107 11 15 2 57 6 94 8 36
3 68 6 70 8 7 8 71 2 114 -10z m-1726 -241 c138 -80 253 -149 254 -153 2 -5 8
-6 13 -2 5 3 9 0 9 -5 0 -6 5 -11 11 -11 6 0 55 -26 108 -58 53 -31 113 -66
134 -77 20 -11 37 -23 37 -27 0 -5 9 -8 20 -8 11 0 20 -3 20 -8 0 -4 30 -23
66 -42 128 -67 185 -141 198 -262 3 -23 -1 -28 -18 -29 -11 -1 -39 -2 -61 -4
-200 -11 -352 -17 -515 -20 -106 -2 -195 -6 -197 -9 -3 -3 -14 -1 -24 5 -11 5
-19 6 -19 2 0 -10 -41 -10 -58 1 -7 4 -12 4 -12 -1 0 -10 -201 -10 -218 0 -6
5 -12 4 -12 0 0 -10 -61 -10 -78 1 -7 4 -12 3 -12 -2 0 -9 -36 -9 -45 0 -4 3
-18 3 -33 -1 -15 -4 -40 -5 -57 -1 -16 3 -42 5 -57 4 -24 -2 -26 -1 -18 24 5
15 16 52 25 82 10 30 18 60 20 65 1 6 5 17 8 25 3 8 20 62 37 120 17 58 42
143 56 190 14 47 28 94 32 105 3 11 7 23 8 28 1 4 3 9 4 12 1 3 3 8 4 13 2 4
9 27 16 52 7 25 14 47 15 50 1 3 5 19 10 35 15 56 24 66 52 59 15 -4 140 -73
277 -153z m-2574 -936 c33 -8 56 -12 110 -19 25 -3 56 -8 70 -11 14 -3 43 -7
65 -10 46 -7 80 -13 80 -15 0 -1 20 -3 45 -5 75 -6 154 -14 177 -19 19 -4 97
-13 188 -21 17 -1 64 -6 105 -10 41 -4 91 -9 110 -10 103 -8 219 -17 250 -20
19 -2 95 -7 169 -11 74 -3 142 -8 150 -9 9 -2 19 -4 23 -4 3 -1 5 -7 4 -13 -2
-13 -51 -172 -87 -284 -11 -33 -21 -69 -23 -80 -3 -10 -14 -48 -25 -84 -11
-36 -21 -68 -21 -72 0 -4 -8 -27 -16 -50 -24 -69 -29 -106 -27 -218 1 -69 6
-117 16 -140 l15 -35 13 28 c7 15 16 27 21 27 4 0 8 5 8 11 0 6 6 16 13 23 6
8 32 38 57 67 24 30 84 93 131 141 l87 87 37 123 c20 68 38 128 39 133 2 6 6
17 9 25 3 8 13 42 22 75 16 59 26 90 41 130 4 11 8 25 9 30 7 52 18 65 54 66
92 2 122 1 128 -4 3 -4 14 -2 24 4 11 5 19 6 19 2 0 -6 502 -8 570 -3 8 1 26
1 40 1 14 -1 32 -1 40 0 8 0 26 0 40 -1 26 -2 338 9 422 14 43 3 46 1 38 -15
-14 -26 -14 -27 28 -28 114 -4 244 -18 285 -31 16 -5 27 -5 27 0 0 5 11 25 24
45 14 20 26 40 28 45 3 9 21 12 173 24 39 4 90 9 115 11 25 3 72 8 105 11 165
15 224 22 235 29 6 3 10 1 10 -6 0 -8 4 -8 13 -1 6 5 39 12 72 16 33 3 71 8
85 10 26 5 88 14 152 22 21 2 43 5 50 6 13 3 18 -20 9 -37 -3 -5 -7 -19 -8
-30 -2 -11 -10 -47 -18 -80 -50 -204 -147 -614 -151 -635 -9 -47 -25 -100 -30
-100 -5 0 -20 12 -62 50 -15 14 -35 30 -44 35 -8 6 -51 35 -94 65 -84 58 -337
190 -364 190 -9 0 -20 4 -25 9 -8 7 -164 60 -195 66 -3 1 -30 7 -60 13 -178
39 -228 45 -420 45 -194 1 -334 -12 -392 -38 -20 -8 -24 -58 -8 -100 5 -14 12
-36 15 -48 8 -36 41 -162 85 -322 22 -82 42 -157 44 -165 2 -8 11 -42 21 -75
17 -63 35 -130 40 -155 2 -8 4 -17 5 -20 1 -3 3 -9 4 -15 1 -5 5 -17 8 -25 7
-16 28 -96 32 -120 1 -8 10 -40 19 -70 9 -30 18 -66 21 -80 4 -22 56 -214 86
-320 5 -19 16 -59 25 -89 15 -56 27 -71 57 -71 10 0 279 262 604 587 465 465
586 581 581 558 -7 -38 -15 -70 -17 -70 -1 0 -3 -11 -5 -25 -2 -14 -11 -54
-20 -90 -9 -36 -19 -75 -21 -87 -2 -12 -8 -33 -13 -46 -5 -12 -218 -232 -473
-487 -256 -256 -470 -474 -476 -485 -16 -32 6 -51 88 -74 141 -40 335 -93 370
-101 31 -8 97 -25 125 -34 6 -1 26 -6 46 -10 l35 -7 -12 -57 c-7 -31 -13 -57
-14 -57 -1 0 -3 -13 -5 -28 -6 -48 -20 -57 -64 -41 -22 7 -51 15 -65 18 -14 3
-29 7 -34 10 -5 3 -20 7 -35 10 -15 4 -39 8 -54 11 -14 3 -34 10 -45 16 -10 5
-18 8 -18 5 0 -3 -15 0 -32 5 -61 19 -287 80 -314 85 -28 5 -58 -28 -49 -54 3
-11 8 -29 10 -39 2 -10 15 -61 30 -113 14 -52 28 -104 30 -115 2 -11 40 -155
85 -320 77 -286 86 -320 95 -355 2 -8 4 -15 5 -15 1 0 3 -7 5 -15 1 -8 10 -42
19 -75 18 -63 24 -87 30 -120 2 -11 9 -32 15 -47 6 -16 8 -28 5 -28 -2 0 0 -8
5 -19 6 -10 13 -31 16 -47 3 -16 11 -53 19 -82 10 -35 11 -63 6 -85 -5 -17
-12 -45 -15 -62 -3 -16 -16 -72 -29 -123 -23 -87 -25 -131 -14 -232 2 -20 -1
-25 -19 -24 -13 0 -23 -2 -23 -6 0 -3 -8 -6 -17 -7 -20 -1 -76 -9 -109 -17
-135 -29 -530 -25 -674 8 -14 4 -38 8 -55 10 -184 24 -535 162 -725 285 -30
19 -58 34 -62 33 -5 -1 -8 1 -8 6 0 4 -18 18 -40 32 -22 14 -40 28 -40 32 0 5
-6 8 -14 8 -8 0 -16 3 -18 8 -1 4 -24 24 -50 45 -107 86 -236 217 -340 345
-63 77 -215 316 -221 345 -1 7 -4 14 -7 17 -10 9 -62 123 -95 210 -27 71 -70
205 -66 205 1 0 -5 23 -13 50 -15 54 -26 107 -41 205 -26 169 -25 486 1 625 3
17 7 44 9 60 2 17 4 30 5 30 1 0 3 11 6 25 2 14 7 32 10 40 4 8 8 29 9 45 2
17 15 65 28 107 28 87 32 78 -58 128 -33 19 -61 37 -63 42 -2 4 -8 8 -13 8 -9
0 -164 87 -229 129 -14 8 -28 14 -32 13 -5 -1 -8 3 -8 8 0 6 -7 10 -15 10 -8
0 -15 5 -15 10 0 6 -5 10 -10 10 -6 0 -104 55 -218 121 -114 67 -227 133 -252
147 -25 13 -52 31 -61 38 -8 8 -19 14 -22 14 -4 0 -88 47 -186 105 -98 58
-182 105 -185 105 -4 0 -25 17 -47 38 -44 39 -87 105 -95 144 -8 40 -12 123
-6 133 4 6 8 16 9 23 2 6 4 18 6 25 2 10 30 61 119 212 10 17 25 45 34 63 9
17 20 32 25 32 5 0 9 9 9 20 0 11 4 20 9 20 5 0 14 12 20 28 7 15 17 36 24 47
7 11 23 40 36 64 l23 44 51 -7 c29 -3 63 -8 77 -11z m4985 -1186 c36 -54 65
-103 65 -108 0 -5 3 -11 8 -13 7 -3 71 -130 115 -228 28 -63 74 -195 79 -225
2 -11 6 -22 10 -25 3 -3 8 -18 11 -35 3 -16 8 -39 11 -50 21 -89 28 -125 32
-155 3 -19 7 -46 9 -60 23 -122 23 -474 1 -585 -2 -11 -7 -42 -10 -69 -10 -74
-71 -301 -106 -396 -47 -128 -140 -312 -221 -435 -39 -60 -74 -112 -78 -115
-4 -3 -14 -14 -22 -26 -71 -105 -260 -292 -404 -400 -121 -92 -318 -214 -345
-214 -4 0 -2 20 5 44 7 24 15 56 16 72 2 16 7 35 12 41 5 7 7 13 4 13 -3 0 1
24 10 53 9 28 16 58 16 64 0 7 8 15 17 18 16 5 32 16 78 55 6 6 12 8 12 5 0
-4 6 0 13 7 8 7 29 24 47 38 144 109 316 297 426 465 79 121 189 347 207 426
9 38 -16 58 -95 75 -28 6 -32 7 -88 24 -25 7 -49 14 -55 16 -10 2 -163 43
-180 48 -5 1 -27 6 -48 11 -20 4 -39 11 -42 15 -3 5 5 50 17 100 20 82 24 91
43 85 11 -3 31 -8 44 -11 14 -3 28 -7 33 -10 7 -5 21 -8 75 -18 13 -3 26 -7
31 -10 5 -3 19 -7 33 -10 21 -5 226 -58 254 -67 17 -5 55 12 56 24 0 7 2 19 4
27 38 183 37 502 -2 695 -3 17 -7 40 -7 53 -1 12 -5 22 -10 22 -4 0 -6 7 -3
15 4 8 2 17 -3 20 -5 3 -8 13 -8 23 1 18 -52 181 -80 247 -27 64 -114 239
-126 255 -13 16 -13 20 -3 60 8 30 47 189 52 210 2 8 4 23 4 33 1 29 17 12 86
-94z m-4895 -757 c352 -97 589 -416 575 -772 -2 -52 -6 -106 -9 -119 -26 -113
-82 -251 -101 -251 -6 0 -31 32 -56 71 -24 39 -49 76 -54 82 -6 7 -22 30 -35
52 -13 22 -27 42 -30 45 -4 3 -15 20 -25 38 -11 17 -23 32 -28 32 -4 0 -6 4
-2 9 3 5 1 12 -5 16 -6 3 -29 34 -52 68 -23 34 -44 64 -47 67 -3 3 -10 12 -16
21 -34 54 -86 128 -105 149 -12 14 -29 37 -38 53 -9 15 -20 27 -24 27 -4 0 -8
7 -8 15 0 8 -5 15 -11 15 -6 0 0 -19 14 -42 13 -24 41 -74 62 -113 20 -38 42
-76 47 -82 6 -7 7 -13 2 -13 -5 0 -4 -4 2 -8 6 -4 29 -41 51 -82 22 -41 71
-127 108 -190 37 -63 75 -128 85 -145 48 -84 66 -111 78 -124 12 -13 12 -16
-3 -21 -38 -13 -182 0 -279 25 -64 17 -196 80 -226 108 -11 9 -23 17 -28 17
-16 0 -148 144 -183 200 -41 64 -93 188 -104 245 -5 22 -10 47 -12 55 -6 23
-6 212 0 240 3 14 8 36 11 49 28 129 105 276 149 283 60 11 227 -1 297 -20z"/>
<path d="M4810 5948 c-14 -6 -52 -22 -85 -36 -58 -24 -101 -44 -195 -94 -67
-35 -250 -159 -250 -169 0 -5 -5 -9 -10 -9 -14 0 -58 -39 -160 -140 -112 -112
-163 -173 -248 -300 -64 -96 -188 -330 -175 -330 3 0 1 -6 -4 -12 -20 -26 -44
-108 -38 -128 4 -13 23 -25 60 -36 30 -8 56 -15 57 -14 2 0 27 -7 57 -16 30
-9 62 -17 70 -19 9 -2 31 -8 49 -14 17 -5 32 -8 32 -6 0 2 17 -3 38 -12 20 -8
38 -15 40 -14 1 0 3 1 5 0 1 0 9 -2 17 -4 9 -1 51 -13 95 -25 44 -12 87 -23
95 -25 8 -2 85 -22 170 -45 85 -23 162 -44 170 -46 8 -2 39 -10 68 -18 29 -8
55 -15 57 -15 3 -1 10 -3 17 -5 26 -8 64 -17 93 -22 17 -3 32 -10 33 -15 2 -5
8 -7 13 -3 5 3 15 2 21 -2 7 -5 19 -9 28 -10 8 0 58 -13 110 -28 52 -15 106
-29 120 -32 14 -3 49 -12 79 -21 45 -13 55 -13 66 -2 17 17 21 47 12 79 -38
131 -160 592 -158 598 1 1 -5 18 -13 37 -8 19 -13 35 -11 35 2 0 -1 15 -6 33
-6 17 -12 39 -14 47 -1 8 -8 35 -15 60 -7 25 -13 50 -14 55 -2 6 -8 28 -14 50
-22 74 -62 223 -66 247 -3 13 -5 23 -6 23 -1 0 -3 7 -5 15 -2 8 -11 42 -20 75
-9 33 -17 68 -18 78 -1 9 -5 17 -10 17 -5 0 -7 6 -4 14 3 8 3 17 -1 21 -4 4
-7 10 -7 13 -1 18 -37 149 -44 160 -11 18 -51 22 -81 10z"/>
<path d="M3583 4505 c-9 -7 -18 -23 -19 -36 -1 -13 -4 -35 -8 -49 -4 -14 -8
-46 -10 -72 -2 -25 -6 -49 -9 -54 -2 -5 -3 -92 -2 -194 3 -166 7 -233 20 -295
10 -48 14 -72 19 -97 20 -117 93 -320 166 -468 41 -82 160 -275 179 -290 3 -3
18 -21 32 -40 48 -63 66 -80 87 -80 31 0 1212 1183 1212 1214 0 25 -19 37 -90
56 -25 7 -55 16 -68 21 -13 5 -33 9 -46 9 -12 0 -26 3 -30 7 -3 4 -17 8 -29
10 -12 2 -33 7 -47 12 -14 6 -41 13 -60 17 -41 9 -48 11 -57 14 -5 1 -12 3
-18 4 -5 1 -17 5 -25 8 -17 7 -95 27 -128 33 -12 2 -27 7 -33 10 -5 4 -20 8
-32 10 -38 5 -82 17 -94 28 -7 5 -13 7 -13 4 0 -3 -24 1 -52 9 -29 8 -60 17
-68 19 -8 2 -42 11 -74 20 -33 8 -67 17 -75 19 -9 2 -23 6 -31 9 -8 3 -28 9
-45 13 -16 4 -34 8 -40 10 -5 2 -19 5 -30 8 -11 3 -45 12 -75 21 -30 8 -66 18
-80 21 -14 3 -43 10 -65 17 -22 6 -44 12 -50 13 -5 1 -12 3 -15 4 -3 1 -12 3
-20 5 -8 2 -48 12 -87 23 -60 16 -76 17 -90 7z"/>
<path d="M4793 3286 c-460 -460 -593 -599 -593 -618 0 -16 12 -34 36 -54 70
-56 199 -146 268 -186 67 -39 246 -126 276 -134 8 -2 53 -17 100 -34 46 -16
96 -32 110 -34 14 -3 57 -12 95 -21 39 -9 88 -18 110 -20 22 -3 58 -8 80 -11
71 -12 460 -7 460 6 0 1 16 3 35 5 51 5 80 13 97 27 18 15 13 56 -23 178 -14
47 -27 96 -29 110 -2 14 -8 36 -13 50 -5 14 -10 28 -11 32 -1 4 -3 13 -5 20
-8 24 -27 103 -33 128 -2 14 -7 32 -10 40 -3 8 -7 20 -8 25 -1 6 -3 15 -5 20
-1 6 -3 15 -4 20 -1 6 -5 17 -8 25 -3 8 -29 105 -58 215 -29 110 -56 214 -60
230 -5 17 -16 55 -25 85 -14 52 -19 71 -31 129 -3 14 -7 28 -10 33 -3 4 -7 17
-10 28 -2 11 -6 29 -8 40 -3 11 -7 24 -10 28 -3 5 -7 19 -10 33 -9 44 -14 64
-26 109 -7 25 -11 46 -9 46 12 5 -38 44 -55 44 -14 -1 -215 -195 -613 -594z"/>
</g>
</svg>
